<svg width="13" height="13" viewBox="0 0 13 13" fill="none" xmlns="http://www.w3.org/2000/svg">
<path d="M6.33328 7.78364C6.11692 7.78364 5.9375 7.60422 5.9375 7.38786V4.7493C5.9375 4.53294 6.11692 4.35352 6.33328 4.35352C6.54965 4.35352 6.72907 4.53294 6.72907 4.7493V7.38786C6.72907 7.60422 6.54965 7.78364 6.33328 7.78364Z" fill="#FF4D4F"/>
<path d="M6.3324 9.49888C6.30074 9.49888 6.2638 9.4936 6.22686 9.48833C6.19519 9.48305 6.16353 9.4725 6.13187 9.45666C6.10021 9.44611 6.06854 9.43028 6.03688 9.40917C6.01049 9.38806 5.98411 9.36695 5.95772 9.34584C5.86274 9.24558 5.80469 9.10837 5.80469 8.97117C5.80469 8.83396 5.86274 8.69676 5.95772 8.59649C5.98411 8.57539 6.01049 8.55428 6.03688 8.53317C6.06854 8.51206 6.10021 8.49623 6.13187 8.48567C6.16353 8.46984 6.19519 8.45929 6.22686 8.45401C6.29546 8.43818 6.36934 8.43818 6.43266 8.45401C6.4696 8.45929 6.50127 8.46984 6.53293 8.48567C6.56459 8.49623 6.59626 8.51206 6.62792 8.53317C6.6543 8.55428 6.68069 8.57539 6.70707 8.59649C6.80206 8.69676 6.86011 8.83396 6.86011 8.97117C6.86011 9.10837 6.80206 9.24558 6.70707 9.34584C6.68069 9.36695 6.6543 9.38806 6.62792 9.40917C6.59626 9.43028 6.56459 9.44611 6.53293 9.45666C6.50127 9.4725 6.4696 9.48305 6.43266 9.48833C6.401 9.4936 6.36406 9.49888 6.3324 9.49888Z" fill="#FF4D4F"/>
<path d="M9.53042 11.694H3.13455C2.10552 11.694 1.31923 11.3194 0.918166 10.6439C0.522382 9.96843 0.575153 9.0977 1.07648 8.19532L4.27441 2.44326C4.80212 1.49338 5.53036 0.970947 6.33249 0.970947C7.13461 0.970947 7.86285 1.49338 8.39056 2.44326L11.5885 8.2006C12.0898 9.10298 12.1479 9.96843 11.7468 10.6492C11.3457 11.3194 10.5595 11.694 9.53042 11.694ZM6.33249 1.76251C5.83644 1.76251 5.35094 2.14247 4.96571 2.82849L1.77306 8.58583C1.41421 9.22963 1.35617 9.82067 1.60419 10.2481C1.85222 10.6756 2.40103 10.9078 3.13983 10.9078H9.5357C10.2745 10.9078 10.818 10.6756 11.0713 10.2481C11.3246 9.82067 11.2613 9.23491 10.9025 8.58583L7.69926 2.82849C7.31403 2.14247 6.82854 1.76251 6.33249 1.76251Z" fill="#FF4D4F"/>
</svg>
